<svg width="371" height="74" viewBox="0 0 371 74" fill="none" xmlns="http://www.w3.org/2000/svg">
<mask id="mask0" mask-type="alpha" maskUnits="userSpaceOnUse" x="-1" y="0" width="151" height="74">
<path d="M33.9143 36.8479L16.5596 41.6989V31.997L33.9143 36.8479Z" fill="#0D0C0C"/>
<path d="M33.9143 48.412L16.5596 53.5759V43.2481L33.9143 48.412Z" fill="#0D0C0C"/>
<path d="M38.4005 36.6672L32.4704 23.3866H44.3305L38.4005 36.6672Z" fill="#0D0C0C"/>
<path d="M57.7622 36.6672L51.8321 23.3866H63.6923L57.7622 36.6672Z" fill="#0D0C0C"/>
<path d="M47.8452 42.4493L41.9151 29.1686H53.7753L47.8452 42.4493Z" fill="#0D0C0C"/>
<path d="M38.4005 35.0411V54.3748" stroke="#090808"/>
<line x1="48.1091" y1="41.0038" x2="48.1091" y2="54.3748" stroke="#090808"/>
<line x1="58.0261" y1="35.9445" x2="58.0261" y2="54.3748" stroke="#090808"/>
<line x1="91.1127" y1="21.928" x2="130.724" y2="21.928" stroke="black" stroke-width="5"/>
<line x1="110.778" y1="24.428" x2="110.778" y2="61.0579" stroke="black" stroke-width="5"/>
<path d="M76.1269 54.6831C61.8226 75.2874 24.6504 75.2151 11.9413 59.9159C-10.0652 33.4247 13.4084 10.3185 30.2798 6.93351C37.1371 5.55771 61.8225 1.70077 71.7254 26.8838C82.7696 54.9689 95.8542 67.7112 107.958 69.3465C122.119 71.2597 137.247 64.075 143.808 48.2543C151.582 29.5058 136.897 10.3667 128.69 6.93351C123.172 4.62521 99.2336 -4.51323 76.1269 16.7451" stroke="black" stroke-width="6"/>
<path d="M75.3623 19.0214L75.3623 3.33597" stroke="black" stroke-width="5"/>
<line x1="75.7288" y1="16.5345" x2="91.1333" y2="16.5345" stroke="black" stroke-width="5"/>
<path d="M76.2715 50.9867L82.675 65.5959" stroke="black" stroke-width="5"/>
<line y1="-2.5" x2="15.194" y2="-2.5" transform="matrix(-0.944294 0.329104 -0.401449 -0.915881 75.9249 51.0936)" stroke="black" stroke-width="5"/>
</mask>
<g mask="url(#mask0)">
<rect x="-3.31557" y="-6.81952" width="177.953" height="91.3992" fill="url(#paint0_linear)"/>
</g>
<path d="M195.656 32.5182H185.601V60.405H181.498V32.5182H171.464V29.1237H195.656V32.5182ZM209.277 40.7253C208.675 40.625 208.024 40.5749 207.322 40.5749C204.715 40.5749 202.946 41.6849 202.015 43.905V60.405H198.041V37.1589H201.908L201.972 39.8444C203.276 37.7676 205.123 36.7292 207.515 36.7292C208.289 36.7292 208.876 36.8294 209.277 37.03V40.7253ZM226.443 60.405C226.214 59.9466 226.028 59.1302 225.884 57.9557C224.037 59.875 221.831 60.8347 219.267 60.8347C216.976 60.8347 215.092 60.1901 213.617 58.9011C212.156 57.5977 211.425 55.9505 211.425 53.9597C211.425 51.5391 212.342 49.6628 214.175 48.3307C216.023 46.9844 218.615 46.3112 221.953 46.3112H225.82V44.485C225.82 43.0957 225.405 41.9929 224.574 41.1765C223.743 40.3457 222.518 39.9304 220.9 39.9304C219.482 39.9304 218.293 40.2884 217.334 41.0046C216.374 41.7207 215.894 42.5873 215.894 43.6042H211.898C211.898 42.444 212.306 41.3268 213.123 40.2526C213.953 39.1641 215.071 38.3047 216.474 37.6745C217.892 37.0443 219.446 36.7292 221.136 36.7292C223.815 36.7292 225.913 37.4024 227.431 38.7487C228.949 40.0807 229.737 41.9212 229.795 44.2702V54.9694C229.795 57.1035 230.067 58.8008 230.611 60.0612V60.405H226.443ZM219.847 57.3757C221.093 57.3757 222.275 57.0534 223.392 56.4089C224.509 55.7643 225.319 54.9265 225.82 53.8952V49.1257H222.705C217.835 49.1257 215.4 50.5508 215.4 53.4011C215.4 54.6472 215.815 55.6211 216.646 56.3229C217.477 57.0248 218.544 57.3757 219.847 57.3757ZM239.785 37.1589L239.914 40.0807C241.69 37.8464 244.01 36.7292 246.875 36.7292C251.787 36.7292 254.265 39.5007 254.308 45.0436V60.405H250.334V45.0222C250.319 43.3464 249.933 42.1074 249.173 41.3054C248.429 40.5033 247.261 40.1022 245.671 40.1022C244.382 40.1022 243.251 40.446 242.277 41.1335C241.303 41.821 240.544 42.7233 240 43.8405V60.405H236.025V37.1589H239.785ZM273.837 54.239C273.837 53.1647 273.429 52.334 272.613 51.7468C271.811 51.1452 270.4 50.6296 268.38 50.1999C266.375 49.7702 264.778 49.2546 263.589 48.653C262.415 48.0515 261.541 47.3353 260.968 46.5046C260.41 45.6738 260.13 44.6856 260.13 43.5397C260.13 41.6348 260.933 40.0235 262.537 38.7057C264.155 37.388 266.218 36.7292 268.724 36.7292C271.36 36.7292 273.494 37.4095 275.127 38.7702C276.774 40.1309 277.597 41.8711 277.597 43.9909H273.601C273.601 42.9024 273.136 41.9642 272.205 41.1765C271.288 40.3887 270.128 39.9948 268.724 39.9948C267.278 39.9948 266.146 40.3099 265.33 40.9401C264.513 41.5703 264.105 42.3939 264.105 43.4108C264.105 44.3705 264.485 45.0938 265.244 45.5807C266.003 46.0677 267.371 46.5332 269.347 46.9772C271.338 47.4212 272.949 47.9512 274.181 48.5671C275.413 49.183 276.323 49.9278 276.91 50.8015C277.511 51.6608 277.812 52.7136 277.812 53.9597C277.812 56.0365 276.981 57.7051 275.32 58.9655C273.658 60.2116 271.503 60.8347 268.853 60.8347C266.991 60.8347 265.344 60.5052 263.912 59.8464C262.479 59.1875 261.355 58.2709 260.539 57.0964C259.737 55.9076 259.336 54.6257 259.336 53.2507H263.31C263.382 54.5827 263.912 55.6426 264.9 56.4304C265.903 57.2038 267.22 57.5905 268.853 57.5905C270.357 57.5905 271.56 57.2897 272.462 56.6882C273.379 56.0723 273.837 55.2559 273.837 54.239ZM287.308 60.405H283.334V27.405H287.308V60.405ZM308.041 60.405C307.811 59.9466 307.625 59.1302 307.482 57.9557C305.634 59.875 303.429 60.8347 300.865 60.8347C298.573 60.8347 296.69 60.1901 295.214 58.9011C293.754 57.5977 293.023 55.9505 293.023 53.9597C293.023 51.5391 293.94 49.6628 295.773 48.3307C297.621 46.9844 300.213 46.3112 303.55 46.3112H307.418V44.485C307.418 43.0957 307.002 41.9929 306.171 41.1765C305.341 40.3457 304.116 39.9304 302.498 39.9304C301.08 39.9304 299.891 40.2884 298.931 41.0046C297.972 41.7207 297.492 42.5873 297.492 43.6042H293.496C293.496 42.444 293.904 41.3268 294.72 40.2526C295.551 39.1641 296.668 38.3047 298.072 37.6745C299.49 37.0443 301.044 36.7292 302.734 36.7292C305.412 36.7292 307.511 37.4024 309.029 38.7487C310.547 40.0807 311.335 41.9212 311.392 44.2702V54.9694C311.392 57.1035 311.664 58.8008 312.209 60.0612V60.405H308.041ZM301.445 57.3757C302.691 57.3757 303.873 57.0534 304.99 56.4089C306.107 55.7643 306.916 54.9265 307.418 53.8952V49.1257H304.302C299.433 49.1257 296.998 50.5508 296.998 53.4011C296.998 54.6472 297.413 55.6211 298.244 56.3229C299.074 57.0248 300.142 57.3757 301.445 57.3757ZM323.015 31.53V37.1589H327.355V40.2311H323.015V54.6472C323.015 55.5781 323.209 56.28 323.595 56.7526C323.982 57.211 324.641 57.4401 325.572 57.4401C326.03 57.4401 326.66 57.3542 327.462 57.1823V60.405C326.417 60.6914 325.4 60.8347 324.412 60.8347C322.636 60.8347 321.296 60.2975 320.394 59.2233C319.492 58.1491 319.041 56.6237 319.041 54.6472V40.2311H314.808V37.1589H319.041V31.53H323.015ZM330.535 48.5671C330.535 46.2897 330.979 44.2416 331.867 42.4225C332.769 40.6035 334.015 39.1999 335.605 38.2116C337.209 37.2233 339.035 36.7292 341.084 36.7292C344.249 36.7292 346.806 37.8249 348.754 40.0163C350.716 42.2077 351.697 45.1224 351.697 48.7604V49.0397C351.697 51.3028 351.26 53.3366 350.386 55.1413C349.527 56.9317 348.288 58.3281 346.67 59.3307C345.065 60.3334 343.218 60.8347 341.127 60.8347C337.976 60.8347 335.419 59.739 333.457 57.5475C331.509 55.3561 330.535 52.4557 330.535 48.8464V48.5671ZM334.531 49.0397C334.531 51.6179 335.125 53.6875 336.314 55.2487C337.517 56.8099 339.121 57.5905 341.127 57.5905C343.146 57.5905 344.75 56.8028 345.939 55.2272C347.128 53.6374 347.722 51.4173 347.722 48.5671C347.722 46.0176 347.114 43.9551 345.896 42.3796C344.693 40.7897 343.089 39.9948 341.084 39.9948C339.121 39.9948 337.539 40.7754 336.336 42.3366C335.132 43.8978 334.531 46.1322 334.531 49.0397ZM367.918 40.7253C367.316 40.625 366.664 40.5749 365.962 40.5749C363.356 40.5749 361.587 41.6849 360.656 43.905V60.405H356.681V37.1589H360.548L360.613 39.8444C361.916 37.7676 363.764 36.7292 366.156 36.7292C366.929 36.7292 367.517 36.8294 367.918 37.03V40.7253Z" fill="url(#paint1_linear)"/>
<defs>
<linearGradient id="paint0_linear" x1="140.784" y1="33.0211" x2="10.514" y2="30.6331" gradientUnits="userSpaceOnUse">
<stop stop-color="#C309F1"/>
<stop offset="1" stop-color="#FFE55C"/>
</linearGradient>
<linearGradient id="paint1_linear" x1="371" y1="44.7936" x2="167.999" y2="46.7041" gradientUnits="userSpaceOnUse">
<stop stop-color="#08C8F2"/>
<stop offset="1" stop-color="#D30ABF"/>
<stop offset="1" stop-color="#F204DA"/>
</linearGradient>
</defs>
</svg>
